<svg class="canvas" viewBox="0 0 1920 1080" preserveAspectRatio="xMaxYMid slice" xmlns="http://www.w3.org/2000/svg" version="1.1" xmlns:xlink="http://www.w3.org/1999/xlink" xmlns:svgjs="http://svgjs.dev/svgjs"><rect width="1920" height="1080" fill="hsl(248, 65%, 15%)"></rect><defs><linearGradient x1="0.5" y1="0" x2="0" y2="1" id="SvgjsLinearGradient1056"><stop stop-color="#49288a" offset="0"></stop><stop stop-color="#14060f" offset="0.1"></stop></linearGradient><linearGradient x1="0.5" y1="0" x2="0" y2="1" id="SvgjsLinearGradient1057"><stop stop-color="#5d288a" offset="0"></stop><stop stop-color="#14060c" offset="0.22857142857142856"></stop></linearGradient><linearGradient x1="0.5" y1="0" x2="0" y2="1" id="SvgjsLinearGradient1058"><stop stop-color="#282f8a" offset="0"></stop><stop stop-color="#130614" offset="0.3571428571428571"></stop></linearGradient><linearGradient x1="0.5" y1="0" x2="0" y2="1" id="SvgjsLinearGradient1059"><stop stop-color="#c7c0f2" offset="0"></stop><stop stop-color="#d742c3" offset="0.48571428571428565"></stop></linearGradient><linearGradient x1="0.5" y1="0" x2="0" y2="1" id="SvgjsLinearGradient1060"><stop stop-color="#c7c0f2" offset="0"></stop><stop stop-color="#d742c3" offset="0.6142857142857142"></stop></linearGradient><linearGradient x1="0.5" y1="0" x2="0" y2="1" id="SvgjsLinearGradient1061"><stop stop-color="#c0cdf2" offset="0"></stop><stop stop-color="#af42d7" offset="0.7428571428571429"></stop></linearGradient><linearGradient x1="0.5" y1="0" x2="0" y2="1" id="SvgjsLinearGradient1062"><stop stop-color="#c7c0f2" offset="0"></stop><stop stop-color="#d742c3" offset="0.8714285714285713"></stop></linearGradient></defs><path d="M0,-510.5837561108516C63.87264715249619,-484.1375509248242,249.79890556775962,-377.4878506165347,383.23588291497714,-351.9065249946874C516.6728602621947,-326.32519937284013,668.8719911068914,-392.6340627257497,800.6218640833051,-357.095802379768C932.3717370597188,-321.55754203378626,1047.3609836229186,-182.1614775770905,1173.7351207734594,-138.67696291879702C1300.109257924,-95.19244826050354,1434.4892071154595,-124.20424889799808,1558.8666869865497,-96.18871443000718C1683.2441668576398,-68.17317996201628,1859.8111144977584,8.482084169289127,1920,29.41624388914839L 1920 1080 L 0 1080 Z" fill="url(&quot;#SvgjsLinearGradient1056&quot;)"></path><path d="M0,-450.8656757546654C40.1191761739625,-445.4948534429203,153.8137692657698,-440.9781404885379,240.715057043775,-418.6407418841948C327.6163448217802,-396.30334327985173,414.4927836813833,-344.18365179112527,521.4077266680314,-316.8412841286068C628.3226696546794,-289.4989164660883,792.4496689475318,-293.44348828861246,882.2047149636635,-254.58653590908398C971.9597609797952,-215.7295835295555,987.3412403525847,-112.82521401016294,1059.938002764822,-83.69956985143588C1132.5347651770592,-54.573925692708826,1227.697941409021,-88.19636900505358,1317.7852894370872,-79.83267095672167C1407.8726374651533,-71.46897290838976,1500.092972506066,-64.05949980940622,1600.4620909332182,-33.51738156144445C1700.8312093603704,-2.975263313482685,1866.7436818222031,80.59713518230004,1920,103.42003853104893L 1920 1080 L 0 1080 Z" fill="url(&quot;#SvgjsLinearGradient1057&quot;)"></path><path d="M0,-244.06958969273813C47.99544105509298,-223.45856051404428,186.15176618226462,-148.17620457108345,287.9726463305579,-120.40341462057496C389.79352647885116,-92.6306246700665,504.15592482684866,-99.22398560324861,610.9252808897597,-77.4328499896873C717.6946369526709,-55.64171437612599,815.7849960564708,-30.44237038118099,928.5887827080245,10.34339906079288C1041.3925693595781,51.129168502766746,1175.375345919719,126.67886729314574,1287.7480007990819,167.28176666215592C1400.1206556784448,207.8846660311661,1497.4493787840493,227.75744990543143,1602.8247119842024,253.96079527485387C1708.2000451843555,280.1641406442763,1867.137451997367,312.74499827805107,1920,324.5018388786905L 1920 1080 L 0 1080 Z" fill="url(&quot;#SvgjsLinearGradient1058&quot;)"></path><path d="M0,-184.92975602188008C62.47710448892527,-170.72136922213087,244.3848840966606,-134.8518464364438,374.8626269335516,-99.67943522338481C505.34036977044263,-64.50702401032584,649.7733921351232,-12.863973033232575,782.866457021346,26.104711256473863C915.9595219075688,65.07339554618031,1046.850879319868,89.06247866335332,1173.4210162508887,134.13267051485383C1299.9911531819093,179.20286236635434,1417.8574479826175,252.56007631207544,1542.2872786074695,296.52586236547694C1666.7171092323215,340.4916484188784,1857.0478797679116,381.02713275696516,1920,397.9273868352628L 1920 1080 L 0 1080 Z" fill="url(&quot;#SvgjsLinearGradient1059&quot;)"></path><path d="M0,-39.659740403908714C50.48867510142738,-16.669965772407934,232.5410198342289,82.61990029076941,302.9320506085643,98.27890738509596C373.32308138289966,113.93791447942252,358.49367059889704,46.8412727889891,422.34618464601215,54.29430216205064C486.19869869312726,61.74733153511218,604.6075125667899,116.24479038302866,686.047134891255,142.9970836234652C767.4867572157202,169.74937686390172,817.3542433568268,188.85999768955398,910.9839185928031,214.80806160466983C1004.6135938287794,240.75612551978568,1156.1491657626625,271.0298021826768,1247.8251863071127,298.6854671141603C1339.501206851563,326.3411320456438,1385.168749830725,357.15509396032854,1461.0400418595045,380.74205119357066C1536.9113338882842,404.3290084268128,1626.5596121230408,410.7503662560501,1703.05293847979,440.20721051361306C1779.5462648365394,469.66405477117604,1883.8421564132984,537.9371323680593,1920,557.4831167389485L 1920 1080 L 0 1080 Z" fill="url(&quot;#SvgjsLinearGradient1060&quot;)"></path><path d="M0,127.7196853802492C54.28907535893088,139.43769118192725,223.25812877157,163.73177584293444,325.73445215358527,198.0277201903175C428.21077553560053,232.32366453770055,508.4788847703426,289.9618667834916,614.8579402920916,333.49535146454747C721.2369958138406,377.02883614560335,849.3831427824247,424.36345547249573,964.0087852840793,459.2286282766529C1078.6344277857338,494.09380108081007,1195.9419110478143,514.50464981275,1302.6117953020193,542.6863882894904C1409.2816795562244,570.8681267662308,1501.1300566929795,595.5754143838739,1604.0280908093096,628.3190591370956C1706.9261249256397,661.0627038903173,1867.338015134885,720.6767238635331,1920,739.1482568088206L 1920 1080 L 0 1080 Z" fill="url(&quot;#SvgjsLinearGradient1061&quot;)"></path><path d="M0,252.8314359255962C54.7278152483064,265.2731922672813,232.8101348093873,305.38877128566327,328.3668914898384,327.4819739757067C423.9236481702895,349.5751766657501,492.82702151499893,359.4055560789019,573.3405400827065,385.39065206585667C653.8540586504141,411.37574805281145,718.9206813947683,455.27234272161496,811.448002896084,483.3925498974352C903.9753243973996,511.5127570732554,1034.2288578674247,524.9999208303552,1128.5044690906009,554.1118951207781C1222.780080313777,583.2238694112009,1299.7672468199569,615.4098201228527,1377.1016702351408,658.0643956399725C1454.4360936503247,700.7189711570924,1502.0279546208944,773.2924605568453,1592.5110095817042,810.0393482234969C1682.994064542514,846.7862358901484,1865.4185015969506,867.1279927371511,1920,878.545721639882L 1920 1080 L 0 1080 Z" fill="url(&quot;#SvgjsLinearGradient1062&quot;)"></path></svg>